<svg width="17" height="22" viewBox="0 0 17 22" fill="none" xmlns="http://www.w3.org/2000/svg">
<path d="M2.003 3.62499L2 5.74799V16.252C2 17.1139 2.34241 17.9406 2.9519 18.5501C3.5614 19.1596 4.38805 19.502 5.25 19.502H13.866C13.7107 19.9407 13.4233 20.3205 13.0433 20.5891C12.6633 20.8577 12.2094 21.002 11.744 21.002H5.25C3.99022 21.002 2.78204 20.5015 1.89124 19.6107C1.00045 18.7199 0.5 17.5118 0.5 16.252V5.74799C0.5 4.76799 1.127 3.93299 2.003 3.62499ZM14.25 0.997986C14.5455 0.997986 14.8381 1.05618 15.111 1.16926C15.384 1.28233 15.6321 1.44806 15.841 1.657C16.0499 1.86593 16.2157 2.11397 16.3287 2.38695C16.4418 2.65993 16.5 2.95251 16.5 3.24799V16.248C16.5 16.5435 16.4418 16.836 16.3287 17.109C16.2157 17.382 16.0499 17.63 15.841 17.839C15.6321 18.0479 15.384 18.2136 15.111 18.3267C14.8381 18.4398 14.5455 18.498 14.25 18.498H5.25C4.65326 18.498 4.08097 18.2609 3.65901 17.839C3.23705 17.417 3 16.8447 3 16.248V3.24799C3 2.65125 3.23705 2.07895 3.65901 1.657C4.08097 1.23504 4.65326 0.997986 5.25 0.997986H14.25ZM14.25 2.49799H5.25C5.05109 2.49799 4.86032 2.577 4.71967 2.71766C4.57902 2.85831 4.5 3.04907 4.5 3.24799V16.248C4.5 16.662 4.836 16.998 5.25 16.998H14.25C14.4489 16.998 14.6397 16.919 14.7803 16.7783C14.921 16.6377 15 16.4469 15 16.248V3.24799C15 3.04907 14.921 2.85831 14.7803 2.71766C14.6397 2.577 14.4489 2.49799 14.25 2.49799Z" fill="white"/>
</svg>
