<svg width="23" height="22" viewBox="0 0 23 22" fill="none" xmlns="http://www.w3.org/2000/svg">
<path fill-rule="evenodd" clip-rule="evenodd" d="M0.5 1.838C0.5 1.35053 0.693646 0.883032 1.03834 0.53834C1.38303 0.193648 1.85053 2.45031e-06 2.338 2.45031e-06H20.66C20.9016 -0.000392101 21.1409 0.0468654 21.3641 0.139069C21.5874 0.231273 21.7903 0.366612 21.9612 0.537339C22.1322 0.708065 22.2677 0.910826 22.3602 1.13401C22.4526 1.3572 22.5001 1.59643 22.5 1.838V20.16C22.5003 20.4016 22.4529 20.6409 22.3606 20.8642C22.2683 21.0875 22.1328 21.2904 21.962 21.4613C21.7912 21.6322 21.5884 21.7678 21.3651 21.8602C21.1419 21.9526 20.9026 22.0001 20.661 22H2.338C2.09655 22 1.85746 21.9524 1.6344 21.86C1.41134 21.7676 1.20867 21.6321 1.03798 21.4613C0.867297 21.2905 0.731932 21.0878 0.639623 20.8647C0.547313 20.6416 0.499869 20.4025 0.5 20.161V1.838ZM9.208 8.388H12.187V9.884C12.617 9.024 13.717 8.25 15.37 8.25C18.539 8.25 19.29 9.963 19.29 13.106V18.928H16.083V13.822C16.083 12.032 15.653 11.022 14.561 11.022C13.046 11.022 12.416 12.111 12.416 13.822V18.928H9.208V8.388ZM3.708 18.791H6.916V8.25H3.708V18.79V18.791ZM7.375 4.812C7.38105 5.08668 7.33217 5.35979 7.23124 5.61532C7.13031 5.87084 6.97935 6.10364 6.78723 6.30003C6.59511 6.49643 6.3657 6.65248 6.11246 6.75901C5.85921 6.86554 5.58724 6.92042 5.3125 6.92042C5.03776 6.92042 4.76579 6.86554 4.51255 6.75901C4.2593 6.65248 4.02989 6.49643 3.83777 6.30003C3.64565 6.10364 3.49469 5.87084 3.39376 5.61532C3.29283 5.35979 3.24395 5.08668 3.25 4.812C3.26187 4.27286 3.48439 3.75979 3.86989 3.38269C4.25539 3.00558 4.77322 2.79442 5.3125 2.79442C5.85178 2.79442 6.36961 3.00558 6.75512 3.38269C7.14062 3.75979 7.36313 4.27286 7.375 4.812Z" fill="white"/>
</svg>
