<svg width="31" height="31" viewBox="0 0 31 31" fill="none" xmlns="http://www.w3.org/2000/svg">
<circle cx="15.25" cy="15.25" r="15.25" fill="white"/>
<path d="M15.8455 7.97843L21.381 13.5138C21.539 13.6718 21.6257 13.8824 21.6257 14.1069C21.6257 14.3317 21.5389 14.5422 21.381 14.7002L20.8783 15.2028C20.7205 15.3607 20.5098 15.4476 20.2851 15.4476C20.0606 15.4476 19.8428 15.3607 19.685 15.2028L16.4487 11.9735V22.233C16.4487 22.6955 16.0865 23.061 15.6238 23.061H14.9132C14.4505 23.061 14.0518 22.6955 14.0518 22.233V11.9369L10.7974 15.2027C10.6394 15.3605 10.4344 15.4475 10.2098 15.4475C9.98533 15.4475 9.77735 15.3605 9.61947 15.2027L9.11839 14.7001C8.96039 14.5421 8.87428 14.3316 8.87428 14.1068C8.87428 13.8822 8.96151 13.6717 9.11952 13.5136L14.6549 7.97831C14.8134 7.81993 15.025 7.73282 15.2499 7.73344C15.4756 7.73295 15.6873 7.81993 15.8455 7.97843Z" fill="#002B65"/>
</svg>
